<svg version="1.1" xmlns="http://www.w3.org/2000/svg" xmlns:xlink="http://www.w3.org/1999/xlink" x="0px" y="0px"
	 width="24px" height="24px" viewBox="0 0 24 24" enable-background="new 0 0 24 24" xml:space="preserve">
<g>
	<path d="M12.001,1.188c2.892,0,5.612,1.128,7.657,3.179c2.033,2.042,3.154,4.751,3.154,7.631c0,2.884-1.117,5.591-3.154,7.632
		c-2.041,2.05-4.766,3.183-7.657,3.183c-2.896,0-5.614-1.129-7.657-3.183c-2.035-2.041-3.156-4.748-3.156-7.632
		c0-2.877,1.12-5.59,3.155-7.631C6.386,2.316,9.106,1.188,12.001,1.188 M12.002,0C5.373,0,0,5.375,0,12c0,6.629,5.373,12,12.002,12
		C18.627,24,24,18.629,24,12C24,5.375,18.627,0,12.002,0L12.002,0z"/>
</g>
<path d="M10.605,14.607c0,0.665-0.541,1.205-1.209,1.205c-0.667,0-1.208-0.54-1.208-1.205
	c0-0.666,0.542-1.203,1.208-1.203C10.064,13.404,10.605,13.941,10.605,14.607z M8.188,9.941v1.786
	c2.25,0.023,4.076,1.841,4.099,4.085h1.79C14.053,12.58,11.43,9.965,8.188,9.941z M8.188,8.692c1.901,0.008,3.688,0.75,5.035,2.091
	c1.348,1.343,2.092,3.128,2.096,5.029h1.793c-0.012-4.91-4-8.89-8.924-8.906V8.692z"/>
</svg>
