<svg version="1.1" xmlns="http://www.w3.org/2000/svg" xmlns:xlink="http://www.w3.org/1999/xlink" x="0px" y="0px"
	 width="24px" height="24px" viewBox="0 0 24 24" enable-background="new 0 0 24 24" xml:space="preserve">
<g>
	<path d="M12.001,1.188c2.891,0,5.612,1.128,7.657,3.179c2.033,2.042,3.154,4.751,3.154,7.631c0,2.884-1.117,5.591-3.154,7.632
		c-2.041,2.049-4.766,3.182-7.657,3.182c-2.896,0-5.614-1.129-7.657-3.182c-2.035-2.041-3.156-4.748-3.156-7.632
		c0-2.877,1.12-5.59,3.155-7.631C6.386,2.316,9.106,1.188,12.001,1.188 M12.002,0C5.373,0,0,5.375,0,12c0,6.629,5.373,12,12.002,12
		C18.627,24,24,18.629,24,12C24,5.375,18.627,0,12.002,0L12.002,0z"/>
</g>
<path fill="#111111" d="M17.312,8.955c-0.377,0.179-0.783,0.3-1.211,0.354c0.436-0.279,0.77-0.721,0.926-1.245
	c-0.404,0.257-0.854,0.445-1.336,0.546c-0.383-0.438-0.93-0.711-1.535-0.711c-1.359,0-2.356,1.356-2.05,2.765
	c-1.748-0.093-3.298-0.99-4.336-2.353c-0.55,1.012-0.286,2.336,0.652,3.006c-0.345-0.012-0.669-0.113-0.953-0.282
	c-0.023,1.044,0.675,2.021,1.688,2.235c-0.296,0.086-0.621,0.107-0.951,0.041c0.269,0.893,1.045,1.544,1.966,1.562
	c-0.885,0.743-1.999,1.074-3.115,0.932c0.931,0.64,2.037,1.013,3.225,1.013c3.908,0,6.113-3.53,5.982-6.698
	C16.674,9.803,17.031,9.406,17.312,8.955z"/>
</svg>
