<svg version="1.1" xmlns="http://www.w3.org/2000/svg" xmlns:xlink="http://www.w3.org/1999/xlink" x="0px" y="0px"
	 width="24px" height="24px" viewBox="0 0 24 24" enable-background="new 0 0 24 24" xml:space="preserve">
<g>
	<path d="M12.001,1.188c2.892,0,5.612,1.128,7.657,3.179c2.033,2.042,3.154,4.751,3.154,7.631c0,2.884-1.117,5.591-3.154,7.632
		c-2.041,2.05-4.766,3.183-7.657,3.183c-2.896,0-5.614-1.129-7.657-3.183c-2.035-2.041-3.156-4.748-3.156-7.632
		c0-2.877,1.12-5.59,3.155-7.631C6.386,2.316,9.106,1.188,12.001,1.188 M12.002,0C5.373,0,0,5.375,0,12c0,6.629,5.373,12,12.002,12
		C18.627,24,24,18.629,24,12C24,5.375,18.627,0,12.002,0L12.002,0z"/>
</g>
<path d="M12.54,11.024l0.67,0.373l1.062-0.358v-0.719c0-1.242-1.038-2.208-2.271-2.208
	c-1.23,0-2.273,0.903-2.273,2.194c0,1.29,0,3.289,0,3.289c0,0.299-0.242,0.539-0.539,0.539c-0.298,0-0.539-0.24-0.539-0.539v-1.393
	H6.907c0,0,0,1.395,0,1.413c0,1.256,1.019,2.275,2.277,2.275c1.247,0,2.259-1.002,2.277-2.244v-3.248
	c0-0.298,0.242-0.539,0.54-0.539c0.297,0,0.539,0.241,0.539,0.539V11.024L12.54,11.024z M15.352,12.201v1.458
	c0,0.299-0.243,0.539-0.54,0.539c-0.298,0-0.539-0.24-0.539-0.539v-1.43l-1.062,0.357l-0.67-0.373v1.419
	c0.011,1.248,1.024,2.256,2.277,2.256c1.256,0,2.275-1.02,2.275-2.275c0-0.018,0-1.413,0-1.413H15.352L15.352,12.201z"/>
</svg>
