<svg version="1.1" xmlns="http://www.w3.org/2000/svg" xmlns:xlink="http://www.w3.org/1999/xlink" x="0px" y="0px"
	 width="24px" height="24px" viewBox="0 0 24 24" enable-background="new 0 0 24 24" xml:space="preserve">
<g>
	<path d="M12.001,1.188c2.892,0,5.612,1.128,7.657,3.179c2.033,2.042,3.154,4.751,3.154,7.631c0,2.884-1.117,5.591-3.154,7.632
		c-2.041,2.05-4.766,3.183-7.657,3.183c-2.896,0-5.614-1.129-7.657-3.183c-2.035-2.041-3.156-4.748-3.156-7.632
		c0-2.877,1.12-5.59,3.155-7.631C6.386,2.316,9.106,1.188,12.001,1.188 M12.002,0C5.373,0,0,5.375,0,12c0,6.629,5.373,12,12.002,12
		C18.627,24,24,18.629,24,12C24,5.375,18.627,0,12.002,0L12.002,0z"/>
</g>
<path d="M9.993,7.76c0,0.614-0.495,1.112-1.104,1.112c-0.609,0-1.103-0.498-1.103-1.112
	c0-0.614,0.494-1.112,1.103-1.112S9.993,7.146,9.993,7.76z M9.662,9.661H7.967v6.026h1.695V9.661z M12.637,9.661h-1.435
	l-0.021,6.026h1.633c0,0,0-2.236,0-3.164c0-0.847,0.72-1.355,1.467-1.355c0.685,0,0.685,0.488,0.685,1.355c0,0.868,0,3.164,0,3.164
	h1.707c0,0,0.021-2.227,0.021-3.841c0-1.615-0.801-2.268-2.081-2.268c-1.275,0-1.799,0.894-1.799,0.894V9.661H12.637z"/>
</svg>
