<svg version="1.1" xmlns="http://www.w3.org/2000/svg" xmlns:xlink="http://www.w3.org/1999/xlink" x="0px" y="0px"
	 width="24px" height="24px" viewBox="0 0 24 24" enable-background="new 0 0 24 24" xml:space="preserve">
<g>
	<path d="M12.001,1.188c2.892,0,5.612,1.128,7.657,3.179c2.033,2.042,3.154,4.751,3.154,7.631c0,2.884-1.117,5.591-3.154,7.632
		c-2.041,2.05-4.766,3.183-7.657,3.183c-2.896,0-5.614-1.129-7.657-3.183c-2.035-2.041-3.156-4.748-3.156-7.632
		c0-2.877,1.12-5.59,3.155-7.631C6.386,2.316,9.106,1.188,12.001,1.188 M12.002,0C5.373,0,0,5.375,0,12c0,6.629,5.373,12,12.002,12
		C18.627,24,24,18.629,24,12C24,5.375,18.627,0,12.002,0L12.002,0z"/>
</g>
<path d="M14.638,7.399c-0.495,0.22-1.026,0.341-1.594,0.363c-0.359-0.218-0.775-0.366-1.253-0.363
	c-1.171,0-2.335,0.812-2.383,2.209c-0.034,0.973,0.429,1.702,1.212,2.149c-0.356,0.169-0.498,0.557-0.498,0.938
	c0,0.38,0.26,0.782,0.504,0.961c-0.836,0.357-1.319,0.873-1.319,1.662c0,2.497,5.255,2.56,5.255-0.105
	c0-0.978-0.656-1.686-2.274-1.956c-0.639-0.092-0.978-1.089-0.034-1.271c1.353-0.229,2.261-1.541,1.786-2.982
	c0.201-0.031,0.401-0.081,0.598-0.152V7.399L14.638,7.399z M11.937,14.458c0.739-0.013,1.182,0.203,1.189,0.733
	c0.01,0.52-0.404,0.755-1.113,0.754c-0.786-0.001-1.232-0.224-1.247-0.76C10.753,14.695,11.147,14.472,11.937,14.458z
	 M11.827,10.726c-0.623,0.01-0.908-0.342-0.909-1.025c0-0.621,0.277-1.009,0.897-1.013c0.554-0.003,0.888,0.368,0.896,1.049
	C12.718,10.426,12.368,10.718,11.827,10.726z"/>
</svg>
