<svg version="1.1" xmlns="http://www.w3.org/2000/svg" xmlns:xlink="http://www.w3.org/1999/xlink" x="0px" y="0px"
	 width="24px" height="24px" viewBox="0 0 24 24" enable-background="new 0 0 24 24" xml:space="preserve">
<g>
	<path d="M12.001,1.188c2.892,0,5.612,1.128,7.657,3.179c2.033,2.042,3.154,4.751,3.154,7.631c0,2.884-1.117,5.591-3.154,7.632
		c-2.041,2.05-4.766,3.183-7.657,3.183c-2.896,0-5.614-1.129-7.657-3.183c-2.035-2.041-3.156-4.748-3.156-7.632
		c0-2.877,1.12-5.59,3.155-7.631C6.386,2.316,9.106,1.188,12.001,1.188 M12.002,0C5.373,0,0,5.375,0,12c0,6.629,5.373,12,12.002,12
		C18.627,24,24,18.629,24,12C24,5.375,18.627,0,12.002,0L12.002,0z"/>
</g>
<g>
	<path fill="#231F20" d="M7.484,11.411c-0.311,0.311-0.482,0.725-0.482,1.163c0,0.439,0.171,0.853,0.482,1.162
		c0.311,0.312,0.723,0.483,1.163,0.483c0.907,0,1.644-0.739,1.644-1.646c0-0.907-0.737-1.643-1.644-1.643
		C8.208,10.931,7.795,11.101,7.484,11.411z"/>
</g>
<g>
	<path fill="#231F20" d="M14.191,11.411c-0.311,0.311-0.483,0.725-0.483,1.163c0,0.439,0.173,0.853,0.483,1.162
		c0.31,0.312,0.723,0.483,1.162,0.483c0.906,0,1.645-0.739,1.645-1.646c0-0.907-0.738-1.643-1.645-1.643
		C14.914,10.931,14.501,11.101,14.191,11.411z"/>
</g>
<g>
	<path fill="none" d="M15.354,9.824c-1.516,0-2.75,1.234-2.75,2.75c0,1.517,1.234,2.751,2.75,2.751c1.517,0,2.75-1.234,2.75-2.751
		C18.104,11.058,16.87,9.824,15.354,9.824z"/>
	<path fill="none" d="M8.647,9.824c-1.517,0-2.75,1.234-2.75,2.75c0,1.517,1.234,2.751,2.75,2.751s2.75-1.234,2.75-2.751
		C11.397,11.058,10.164,9.824,8.647,9.824z"/>
	<path fill="#231F20" d="M18.003,10.413c0.129-0.384,0.725-0.984,0.997-1.256l-2.646,0.146c-0.038-0.011-0.075-0.019-0.113-0.029
		c-0.121-0.192-0.957-1.27-4.299-1.27c-3.667,0-4.316,1.299-4.316,1.299l-2.72-0.115c0.3,0.299,0.883,0.928,1.01,1.333
		c-0.432,0.572-0.691,1.282-0.691,2.054c0,1.888,0.807,3.207,3.422,3.423c1.111,0.092,1.7,0.071,2.329-0.672L12,17.375l0.984-2.05
		c0.628,0.766,1.2,0.774,2.369,0.672c2.459-0.216,3.422-1.535,3.422-3.423C18.775,11.755,18.485,11.001,18.003,10.413z
		 M8.658,15.129c-1.402,0-2.543-1.142-2.543-2.543c0-1.402,1.141-2.543,2.543-2.543s2.543,1.141,2.543,2.543
		C11.201,13.987,10.06,15.129,8.658,15.129z M15.322,15.075c-1.395,0-2.531-1.137-2.531-2.532s1.137-2.531,2.531-2.531
		c1.396,0,2.531,1.136,2.531,2.531S16.718,15.075,15.322,15.075z"/>
</g>
</svg>
