<svg version="1.1" xmlns="http://www.w3.org/2000/svg" xmlns:xlink="http://www.w3.org/1999/xlink" x="0px" y="0px"
	 width="24px" height="24px" viewBox="0 0 24 24" enable-background="new 0 0 24 24" xml:space="preserve">
<g>
	<path d="M12.001,1.188c2.892,0,5.612,1.128,7.657,3.179c2.033,2.042,3.154,4.751,3.154,7.631c0,2.884-1.117,5.591-3.154,7.632
		c-2.041,2.05-4.766,3.183-7.657,3.183c-2.896,0-5.614-1.129-7.657-3.183c-2.035-2.041-3.156-4.748-3.156-7.632
		c0-2.877,1.12-5.59,3.155-7.631C6.386,2.316,9.106,1.188,12.001,1.188 M12.002,0C5.373,0,0,5.375,0,12c0,6.629,5.373,12,12.002,12
		C18.627,24,24,18.629,24,12C24,5.375,18.627,0,12.002,0L12.002,0z"/>
</g>
<path d="M12.009,13.188c0.864,1.002,1.87,1.877,3.206,1.877c1.801,0,2.873-1.367,2.873-3.106
	c0-1.734-1.093-3.023-2.857-3.023c-1.409,0-2.331,0.915-3.222,1.994c-0.914-1.096-1.821-1.994-3.257-1.994
	c-1.717,0-2.84,1.292-2.84,3.056c0,1.753,1.15,3.073,2.913,3.073C10.334,15.064,11.123,14.115,12.009,13.188z M7.49,12.025
	c0-0.684,0.445-1.43,1.262-1.43c0.834,0,1.693,0.833,2.26,1.446c-0.554,0.646-1.363,1.345-2.209,1.345
	C7.965,13.387,7.49,12.807,7.49,12.025z M13.005,12.042c0.591-0.639,1.323-1.446,2.193-1.446c0.849,0,1.328,0.667,1.328,1.412
	c0,0.752-0.438,1.379-1.278,1.379C14.351,13.387,13.595,12.723,13.005,12.042z"/>
</svg>
