
<svg version="1.1" xmlns="http://www.w3.org/2000/svg" xmlns:xlink="http://www.w3.org/1999/xlink" x="0px" y="0px"
	 width="24px" height="24px" viewBox="0 0 24 24" enable-background="new 0 0 24 24" xml:space="preserve">
<g>
	<path d="M12.001,1.188c2.892,0,5.612,1.128,7.657,3.179c2.033,2.042,3.154,4.751,3.154,7.631c0,2.884-1.117,5.591-3.154,7.632
		c-2.041,2.05-4.766,3.183-7.657,3.183c-2.896,0-5.614-1.129-7.657-3.183c-2.035-2.041-3.156-4.748-3.156-7.632
		c0-2.877,1.12-5.59,3.155-7.631C6.386,2.316,9.106,1.188,12.001,1.188 M12.002,0C5.373,0,0,5.375,0,12c0,6.629,5.373,12,12.002,12
		C18.627,24,24,18.629,24,12C24,5.375,18.627,0,12.002,0L12.002,0z"/>
</g>
<path d="M9.627,10.66c0.179-0.18,0.377-0.327,0.589-0.444c1.178-0.65,2.685-0.45,3.444,0.699l-0.871,0.947
	c-0.394-0.899-0.846-0.849-1.606-0.68c-0.245,0.054-0.39,0.134-0.708,0.286l-1.844,1.801c-0.407,0.57-0.483,1.5,0.051,2.034
	c0.534,0.532,1.479,0.471,2.011-0.063l0.542-0.54c0.054,0.021,1.021,0.77,1.005,0.771l-0.659,0.659
	c-1.025,1.025-2.687,1.025-3.712,0s-1.025-2.688,0-3.714L9.627,10.66z M12.417,7.869l-0.666,0.704
	c0.51,0.289,0.556,0.448,1.015,0.727L13.25,8.74c1.229-1.19,2.268,0.184,2.086,0c0.531,0.535,0.439,1.42-0.025,2.034l-1.756,1.759
	c-0.605,0.453-1.476,0.449-2.006-0.081c-0.124-0.124-0.135-0.09-0.201-0.24l-0.943,0.825c0.096,0.146,0.128,0.176,0.256,0.304
	c0.332,0.331,0.753,0.578,1.24,0.695c0.629,0.151,1.302,0.066,1.883-0.252c0.212-0.117,0.409-0.266,0.59-0.443l1.758-1.758
	c1.025-1.025,1.025-2.687,0-3.713C15.105,6.844,13.443,6.844,12.417,7.869z"/>
</svg>
