<svg version="1.1" xmlns="http://www.w3.org/2000/svg" xmlns:xlink="http://www.w3.org/1999/xlink" x="0px" y="0px"
	 width="24px" height="24px" viewBox="0 0 24 24" enable-background="new 0 0 24 24" xml:space="preserve">
<g>
	<path d="M12.001,1.188c2.892,0,5.612,1.128,7.657,3.179c2.033,2.042,3.154,4.751,3.154,7.631c0,2.884-1.117,5.591-3.154,7.632
		c-2.041,2.05-4.766,3.183-7.657,3.183c-2.896,0-5.614-1.129-7.657-3.183c-2.035-2.041-3.156-4.748-3.156-7.632
		c0-2.877,1.12-5.59,3.155-7.631C6.386,2.316,9.106,1.188,12.001,1.188 M12.002,0C5.373,0,0,5.375,0,12c0,6.629,5.373,12,12.002,12
		C18.627,24,24,18.629,24,12C24,5.375,18.627,0,12.002,0L12.002,0z"/>
</g>
<path d="M10.753,7.352c-0.058,0.48-0.165,0.876-0.319,1.187C10.28,8.85,10.076,9.116,9.821,9.337
	C9.566,9.56,9.261,9.73,8.904,9.849v1.33h0.999v3.268c0,0.426,0.043,0.751,0.131,0.976c0.087,0.225,0.244,0.436,0.471,0.635
	c0.226,0.199,0.499,0.353,0.819,0.461c0.321,0.107,0.689,0.161,1.107,0.161c0.366,0,0.71-0.038,1.024-0.114
	c0.313-0.075,0.668-0.205,1.058-0.394v-1.466c-0.456,0.307-0.916,0.46-1.378,0.46c-0.261,0-0.49-0.062-0.692-0.186
	c-0.152-0.092-0.257-0.216-0.314-0.368c-0.056-0.154-0.083-0.5-0.083-1.041v-2.392h2.166V9.713h-2.166V7.352H10.753z"/>
</svg>
