<svg version="1.1" xmlns="http://www.w3.org/2000/svg" xmlns:xlink="http://www.w3.org/1999/xlink" x="0px" y="0px"
	 width="24px" height="24px" viewBox="0 0 24 24" enable-background="new 0 0 24 24" xml:space="preserve">
<g>
	<path d="M12.001,1.188c2.892,0,5.612,1.128,7.657,3.179c2.033,2.042,3.154,4.751,3.154,7.631c0,2.884-1.117,5.591-3.154,7.632
		c-2.041,2.05-4.766,3.183-7.657,3.183c-2.896,0-5.614-1.129-7.657-3.183c-2.035-2.041-3.156-4.748-3.156-7.632
		c0-2.877,1.12-5.59,3.155-7.631C6.386,2.316,9.106,1.188,12.001,1.188 M12.002,0C5.373,0,0,5.375,0,12c0,6.629,5.373,12,12.002,12
		C18.627,24,24,18.629,24,12C24,5.375,18.627,0,12.002,0L12.002,0z"/>
</g>
<path d="M12.208,15.762c0.296,0,0.418-0.199,0.411-0.444c-0.012-0.932,0.348-1.433,1.002-0.778
	c0.724,0.724,0.873,1.223,1.753,1.223c0.332,0,1.229,0,1.555,0c1.222,0,0.133-1.229-0.729-2.026
	c-0.819-0.761-0.856-0.78-0.151-1.695c0.877-1.136,2.021-2.6,1.007-2.6c-0.197,0-0.059,0-1.936,0c-0.374,0-0.4,0.22-0.534,0.535
	c-0.482,1.14-1.402,2.617-1.752,2.392c-0.366-0.235-0.198-1.037-0.169-2.423c0.01-0.366,0.007-0.618-0.554-0.75
	C10.58,8.84,9.257,9.539,9.797,9.639c0.765,0.142,0.69,1.662,0.512,2.375c-0.31,1.243-1.476-0.984-1.961-2.092
	C8.231,9.655,8.196,9.44,7.777,9.44c-0.23,0-1.242,0-1.583,0c-0.305,0-0.455,0.141-0.347,0.423c0.106,0.285,1.33,3.021,2.778,4.584
	C9.964,15.892,11.287,15.762,12.208,15.762z"/>
</svg>
