<svg version="1.1" xmlns="http://www.w3.org/2000/svg" xmlns:xlink="http://www.w3.org/1999/xlink" x="0px" y="0px"
	 width="24px" height="24px" viewBox="0 0 24 24" enable-background="new 0 0 24 24" xml:space="preserve">
<g>
	<path d="M12.001,1.188c2.892,0,5.612,1.128,7.657,3.179c2.033,2.042,3.154,4.751,3.154,7.631c0,2.884-1.117,5.591-3.154,7.632
		c-2.041,2.05-4.766,3.183-7.657,3.183c-2.896,0-5.614-1.129-7.657-3.183c-2.035-2.041-3.156-4.748-3.156-7.632
		c0-2.877,1.12-5.59,3.155-7.631C6.386,2.316,9.106,1.188,12.001,1.188 M12.002,0C5.373,0,0,5.375,0,12c0,6.629,5.373,12,12.002,12
		C18.627,24,24,18.629,24,12C24,5.375,18.627,0,12.002,0L12.002,0z"/>
</g>
<path d="M15.888,6.865H8.111c-0.688,0-1.246,0.557-1.246,1.245v7.778c0,0.688,0.558,1.246,1.246,1.246
	h7.776c0.689,0,1.247-0.558,1.247-1.246V8.11C17.135,7.422,16.577,6.865,15.888,6.865z M16.138,15.739
	c0,0.22-0.18,0.398-0.399,0.398H12V12H7.862V8.261c0-0.22,0.178-0.399,0.398-0.399H12V12h4.138V15.739z"/>
</svg>
