<svg version="1.1" xmlns="http://www.w3.org/2000/svg" xmlns:xlink="http://www.w3.org/1999/xlink" x="0px" y="0px"
	 width="24px" height="24px" viewBox="0 0 24 24" enable-background="new 0 0 24 24" xml:space="preserve">
<g>
	<path d="M12.001,1.188c2.892,0,5.612,1.128,7.657,3.179c2.033,2.042,3.154,4.751,3.154,7.631c0,2.884-1.117,5.591-3.154,7.632
		c-2.041,2.05-4.766,3.183-7.657,3.183c-2.896,0-5.614-1.129-7.657-3.183c-2.035-2.041-3.156-4.748-3.156-7.632
		c0-2.877,1.12-5.59,3.155-7.631C6.386,2.316,9.106,1.188,12.001,1.188 M12.002,0C5.373,0,0,5.375,0,12c0,6.629,5.373,12,12.002,12
		C18.627,24,24,18.629,24,12C24,5.375,18.627,0,12.002,0L12.002,0z"/>
</g>
<path d="M14.798,11h2.938l0.015,4.489c0,1.246-1.021,2.261-2.275,2.261h-6.95c-1.256,0-2.274-1.015-2.274-2.261
	V11l2.967-0.007c-0.185,0.57-0.167,0.425-0.167,1.057c0,1.619,1.317,2.93,2.941,2.93c1.626,0,2.942-1.311,2.942-2.93
	C14.934,11.417,14.959,11.697,14.798,11z M8.473,6.251C8.49,6.25,8.507,6.25,8.524,6.25h0.368 M8.524,6.25h6.95
	c1.255,0,2.275,1.012,2.275,2.264v1.643h-3.5c-0.535-0.54-1.44-1.031-2.259-1.031c-0.822,0-1.724,0.46-2.257,1L6.25,10.141V8.514
	c0-0.765,0.297-1.889,1.703-2.264 M16.435,7.793c0-0.177-0.144-0.321-0.321-0.321h-1.09c-0.176,0-0.318,0.144-0.318,0.321v1.104
	c0,0.176,0.143,0.322,0.318,0.322h1.09c0.178,0,0.321-0.146,0.321-0.322V7.793L16.435,7.793z M10.325,12.05
	c0,0.925,0.749,1.67,1.674,1.67c0.924,0,1.675-0.745,1.675-1.67c0-0.919-0.751-1.663-1.675-1.663
	C11.073,10.387,10.325,11.131,10.325,12.05z"/>
</svg>
