<svg version="1.1" xmlns="http://www.w3.org/2000/svg" xmlns:xlink="http://www.w3.org/1999/xlink" x="0px" y="0px"
	 width="24px" height="24px" viewBox="0 0 24 24" enable-background="new 0 0 24 24" xml:space="preserve">
<g>
	<path d="M12.001,1.188c2.892,0,5.612,1.128,7.657,3.179c2.033,2.042,3.154,4.751,3.154,7.631c0,2.884-1.117,5.591-3.154,7.632
		c-2.041,2.05-4.766,3.183-7.657,3.183c-2.896,0-5.614-1.129-7.657-3.183c-2.035-2.041-3.156-4.748-3.156-7.632
		c0-2.877,1.12-5.59,3.155-7.631C6.386,2.316,9.106,1.188,12.001,1.188 M12.002,0C5.373,0,0,5.375,0,12c0,6.629,5.373,12,12.002,12
		C18.627,24,24,18.629,24,12C24,5.375,18.627,0,12.002,0L12.002,0z"/>
</g>
<path d="M10.96,14.602l-0.44-1.193c0,0-0.713,0.795-1.784,0.795c-0.948,0-1.622-0.823-1.622-2.142
	c0-1.688,0.852-2.293,1.69-2.293c1.208,0,1.591,0.783,1.922,1.785l0.44,1.374c0.438,1.333,1.262,2.401,3.636,2.401
	c1.703,0,2.855-0.521,2.855-1.896c0-1.11-0.631-1.688-1.812-1.963l-0.879-0.191c-0.604-0.138-0.781-0.385-0.781-0.796
	c0-0.467,0.371-0.741,0.975-0.741c0.658,0,1.018,0.247,1.07,0.837l1.375-0.164c-0.109-1.236-0.961-1.744-2.361-1.744
	c-1.236,0-2.445,0.467-2.445,1.963c0,0.934,0.453,1.525,1.594,1.799l0.934,0.22c0.699,0.164,0.932,0.454,0.932,0.851
	c0,0.509-0.494,0.715-1.426,0.715c-1.387,0-1.965-0.728-2.293-1.731l-0.454-1.371c-0.576-1.785-1.496-2.444-3.322-2.444
	c-2.019,0-3.089,1.277-3.089,3.446c0,2.086,1.071,3.212,2.994,3.212C10.219,15.329,10.96,14.602,10.96,14.602L10.96,14.602z"/>
</svg>
