<svg version="1.1" xmlns="http://www.w3.org/2000/svg" xmlns:xlink="http://www.w3.org/1999/xlink" x="0px" y="0px"
	 width="24px" height="24px" viewBox="0 0 24 24" enable-background="new 0 0 24 24" xml:space="preserve">
<g>
	<path d="M12.001,1.188c2.892,0,5.612,1.128,7.657,3.179c2.033,2.042,3.154,4.751,3.154,7.631c0,2.884-1.117,5.591-3.154,7.632
		c-2.041,2.05-4.766,3.183-7.657,3.183c-2.896,0-5.614-1.129-7.657-3.183c-2.035-2.041-3.156-4.748-3.156-7.632
		c0-2.877,1.12-5.59,3.155-7.631C6.386,2.316,9.106,1.188,12.001,1.188 M12.002,0C5.373,0,0,5.375,0,12c0,6.629,5.373,12,12.002,12
		C18.627,24,24,18.629,24,12C24,5.375,18.627,0,12.002,0L12.002,0z"/>
</g>
<path d="M11.923,10.812c2.351-0.048,4.212,1.023,4.515,2.728l-2.422-0.018l-0.035-1.481
	c-0.506-0.242-0.709-0.285-1.246-0.338l-0.025,2.937H18.6c-0.305-2.771-3.098-4.94-6.501-4.94c-0.059,0-0.118,0.001-0.176,0.002
	v-1.27c-0.535-0.041-0.9-0.018-1.414,0.238l-0.01,1.174c-2.569,0.594-4.651,2.52-4.9,4.796h6.324V10.812z M10.562,13.499
	l-2.729,0.064c0.213-1.17,1.603-2.263,2.708-2.596L10.562,13.499z"/>
</svg>
