<svg version="1.1" xmlns="http://www.w3.org/2000/svg" xmlns:xlink="http://www.w3.org/1999/xlink" x="0px" y="0px"
	 width="24px" height="24px" viewBox="0 0 24 24" enable-background="new 0 0 24 24" xml:space="preserve">
<g>
	<path d="M12.001,1.188c2.892,0,5.612,1.128,7.657,3.179c2.033,2.042,3.154,4.751,3.154,7.631c0,2.884-1.117,5.591-3.154,7.632
		c-2.041,2.05-4.766,3.183-7.657,3.183c-2.896,0-5.614-1.129-7.657-3.183c-2.035-2.041-3.156-4.748-3.156-7.632
		c0-2.877,1.12-5.59,3.155-7.631C6.386,2.316,9.106,1.188,12.001,1.188 M12.002,0C5.373,0,0,5.375,0,12c0,6.629,5.373,12,12.002,12
		C18.627,24,24,18.629,24,12C24,5.375,18.627,0,12.002,0L12.002,0z"/>
</g>
<path d="M16.27,10.349c-0.042,0.908-0.677,2.152-1.905,3.732c-1.269,1.651-2.343,2.477-3.221,2.477
	c-0.544,0-1.005-0.502-1.381-1.508c-0.25-0.922-0.502-1.844-0.752-2.764c-0.28-1.005-0.58-1.508-0.9-1.508
	c-0.07,0-0.314,0.147-0.732,0.439l-0.439-0.566c0.46-0.404,0.916-0.81,1.363-1.215c0.614-0.53,1.075-0.81,1.383-0.838
	c0.727-0.07,1.174,0.427,1.341,1.491c0.183,1.147,0.308,1.861,0.378,2.14c0.209,0.952,0.44,1.428,0.691,1.428
	c0.196,0,0.488-0.309,0.881-0.927c0.39-0.617,0.601-1.087,0.628-1.411c0.056-0.532-0.152-0.799-0.628-0.799
	c-0.224,0-0.455,0.051-0.691,0.153c0.459-1.504,1.336-2.234,2.629-2.192C15.872,8.509,16.323,9.131,16.27,10.349z"/>
</svg>
