<svg version="1.1" xmlns="http://www.w3.org/2000/svg" xmlns:xlink="http://www.w3.org/1999/xlink" x="0px" y="0px"
	 width="24px" height="24px" viewBox="0 0 24 24" enable-background="new 0 0 24 24" xml:space="preserve">
<g>
	<path d="M12.001,1.188c2.891,0,5.612,1.128,7.657,3.179c2.033,2.042,3.154,4.751,3.154,7.631c0,2.884-1.117,5.591-3.154,7.632
		c-2.041,2.049-4.766,3.182-7.657,3.182c-2.896,0-5.614-1.129-7.657-3.182c-2.035-2.041-3.156-4.748-3.156-7.632
		c0-2.877,1.12-5.59,3.155-7.631C6.386,2.316,9.106,1.188,12.001,1.188 M12.002,0C5.373,0,0,5.375,0,12c0,6.629,5.373,12,12.002,12
		C18.627,24,24,18.629,24,12C24,5.375,18.627,0,12.002,0L12.002,0z"/>
</g>
<path fill="#111111" d="M12.544,6.729c-3.095,0-4.656,2.178-4.656,3.994c0,1.1,0.424,2.078,1.334,2.442
	c0.149,0.061,0.283,0.002,0.326-0.16c0.03-0.113,0.102-0.395,0.133-0.512c0.043-0.161,0.026-0.217-0.094-0.356
	c-0.262-0.304-0.275-0.704-0.275-1.261c0-1.615,1.077-3.055,3.053-3.055c1.749,0,2.711,1.049,2.711,2.451
	c0,1.843-0.832,3.398-2.065,3.398c-0.682,0-1.192-0.553-1.029-1.23c0.196-0.812,0.576-1.685,0.576-2.27
	c0-0.523-0.286-0.959-0.879-0.959c-0.697,0-1.256,0.708-1.256,1.655c0,0.603,0.208,1.011,0.208,1.011s-0.881,3.042-1.006,3.561
	c-0.249,1.035,0.13,2.224,0.148,2.352c0.011,0.076,0.11,0.095,0.154,0.036c0.065-0.082,0.895-1.088,1.177-2.091
	c0.081-0.285,0.458-1.757,0.458-1.757c0.227,0.421,0.888,0.795,1.592,0.795c2.093,0,3.515-1.873,3.515-4.381
	C16.669,8.495,15.032,6.729,12.544,6.729z"/>
</svg>
