<svg version="1.1" xmlns="http://www.w3.org/2000/svg" xmlns:xlink="http://www.w3.org/1999/xlink" x="0px" y="0px"
	 width="24px" height="24px" viewBox="0 0 24 24" enable-background="new 0 0 24 24" xml:space="preserve">
<g>
	<path d="M12.001,1.188c2.892,0,5.612,1.128,7.657,3.179c2.033,2.042,3.154,4.751,3.154,7.631c0,2.884-1.117,5.591-3.154,7.632
		c-2.041,2.05-4.766,3.183-7.657,3.183c-2.896,0-5.614-1.129-7.657-3.183c-2.035-2.041-3.156-4.748-3.156-7.632
		c0-2.877,1.12-5.59,3.155-7.631C6.386,2.316,9.106,1.188,12.001,1.188 M12.002,0C5.373,0,0,5.375,0,12c0,6.629,5.373,12,12.002,12
		C18.627,24,24,18.629,24,12C24,5.375,18.627,0,12.002,0L12.002,0z"/>
</g>
<path d="M11.768,9.293c0.217,0.305,0.327,0.672,0.327,1.097c0,0.441-0.111,0.794-0.329,1.061
	c-0.121,0.15-0.301,0.286-0.54,0.411c0.362,0.134,0.634,0.344,0.817,0.635c0.184,0.29,0.276,0.643,0.276,1.057
	c0,0.424-0.107,0.809-0.315,1.146c-0.133,0.223-0.301,0.414-0.5,0.569c-0.227,0.173-0.492,0.29-0.799,0.358
	c-0.307,0.063-0.641,0.102-0.998,0.102H6.523V8.524h3.415C10.798,8.539,11.408,8.795,11.768,9.293z M7.931,9.776v1.587H9.65
	c0.306,0,0.555-0.061,0.746-0.179c0.193-0.118,0.288-0.328,0.288-0.633c0-0.333-0.127-0.557-0.381-0.662
	C10.086,9.812,9.809,9.776,9.47,9.776H7.931L7.931,9.776z M7.931,12.555v1.921h1.716c0.308,0,0.546-0.04,0.716-0.128
	c0.31-0.159,0.464-0.451,0.464-0.897c0-0.374-0.15-0.635-0.45-0.774c-0.168-0.077-0.402-0.117-0.708-0.121H7.931L7.931,12.555z
	 M16.534,10.497c0.365,0.167,0.668,0.43,0.903,0.79c0.216,0.317,0.354,0.686,0.419,1.104c0.034,0.245,0.05,0.596,0.044,1.058h-3.806
	c0.021,0.537,0.203,0.914,0.549,1.127c0.204,0.131,0.454,0.2,0.75,0.2c0.311,0,0.565-0.083,0.759-0.246
	c0.107-0.088,0.152-0.133,0.237-0.288l1.423,0.001c-0.033,0.318-0.192,0.56-0.491,0.884c-0.468,0.52-1.12,0.78-1.964,0.78
	c-0.698,0-1.311-0.221-1.842-0.655c-0.534-0.438-0.682-1.164-0.682-2.146c0-0.924,0.124-1.625,0.605-2.118
	c0.479-0.493,1.103-0.739,1.868-0.739C15.761,10.247,16.171,10.33,16.534,10.497z M14.442,11.577
	c-0.19,0.203-0.264,0.611-0.314,0.958l2.456,0.027c-0.028-0.369-0.06-0.759-0.33-1.113c-0.218-0.192-0.603-0.233-0.927-0.233
	C14.976,11.216,14.636,11.375,14.442,11.577z M16.864,8.074h-3.071v1.113h3.071V8.074z"/>
</svg>
