<svg version="1.1" xmlns="http://www.w3.org/2000/svg" xmlns:xlink="http://www.w3.org/1999/xlink" x="0px" y="0px"
	 width="24px" height="24px" viewBox="0 0 24 24" enable-background="new 0 0 24 24" xml:space="preserve">
<g>
	<path d="M12.001,1.188c2.892,0,5.612,1.128,7.657,3.179c2.033,2.042,3.154,4.751,3.154,7.631c0,2.884-1.117,5.591-3.154,7.632
		c-2.041,2.05-4.766,3.183-7.657,3.183c-2.896,0-5.614-1.129-7.657-3.183c-2.035-2.041-3.156-4.748-3.156-7.632
		c0-2.877,1.12-5.59,3.155-7.631C6.386,2.316,9.106,1.188,12.001,1.188 M12.002,0C5.373,0,0,5.375,0,12c0,6.629,5.373,12,12.002,12
		C18.627,24,24,18.629,24,12C24,5.375,18.627,0,12.002,0L12.002,0z"/>
</g>
<path d="M12,6.479c-3.049,0-5.521,2.472-5.521,5.521S8.951,17.521,12,17.521s5.521-2.472,5.521-5.521
	S15.049,6.479,12,6.479z M16.547,11.743c-1.186-0.194-2.274-0.205-3.267-0.033c-0.112-0.26-0.229-0.519-0.353-0.773
	c1.062-0.46,1.916-1.085,2.552-1.877C16.1,9.792,16.49,10.723,16.547,11.743z M14.778,8.393c-0.553,0.714-1.317,1.28-2.292,1.692
	c-0.468-0.856-1.001-1.69-1.604-2.501C11.239,7.493,11.613,7.439,12,7.439C13.047,7.439,14.01,7.797,14.778,8.393z M9.942,7.936
	c0.613,0.802,1.155,1.627,1.627,2.476c-1.118,0.329-2.453,0.498-3.995,0.508C7.894,9.616,8.772,8.531,9.942,7.936z M7.439,12
	c0-0.04,0.005-0.079,0.007-0.118c1.769-0.003,3.296-0.207,4.576-0.608c0.107,0.218,0.209,0.438,0.308,0.659
	c-1.554,0.486-2.835,1.481-3.834,2.981C7.837,14.123,7.439,13.106,7.439,12z M9.201,15.592c0.906-1.42,2.062-2.345,3.495-2.772
	c0.426,1.113,0.741,2.26,0.938,3.434C13.127,16.448,12.576,16.56,12,16.56C10.944,16.56,9.975,16.196,9.201,15.592z M14.531,15.79
	c-0.202-1.081-0.498-2.141-0.882-3.172c0.86-0.123,1.811-0.091,2.851,0.089C16.298,13.989,15.567,15.097,14.531,15.79z"/>
</svg>
