<svg version="1.1" xmlns="http://www.w3.org/2000/svg" xmlns:xlink="http://www.w3.org/1999/xlink" x="0px" y="0px"
	 width="24px" height="24px" viewBox="0 0 24 24" enable-background="new 0 0 24 24" xml:space="preserve">
<g>
	<path d="M12.001,1.188c2.892,0,5.612,1.128,7.657,3.179c2.033,2.042,3.154,4.751,3.154,7.631c0,2.884-1.117,5.591-3.154,7.632
		c-2.041,2.05-4.766,3.183-7.657,3.183c-2.896,0-5.614-1.129-7.657-3.183c-2.035-2.041-3.156-4.748-3.156-7.632
		c0-2.877,1.12-5.59,3.155-7.631C6.386,2.316,9.106,1.188,12.001,1.188 M12.002,0C5.373,0,0,5.375,0,12c0,6.629,5.373,12,12.002,12
		C18.627,24,24,18.629,24,12C24,5.375,18.627,0,12.002,0L12.002,0z"/>
</g>
<path d="M17.071,12.919c0.053-0.297,0.083-0.603,0.083-0.915c0-2.897-2.35-5.245-5.246-5.245
	c-0.331,0-0.652,0.032-0.966,0.09c-0.463-0.282-1.007-0.443-1.589-0.443c-1.691,0-3.062,1.37-3.062,3.061
	c0,0.589,0.167,1.14,0.456,1.606c-0.055,0.303-0.084,0.613-0.084,0.932c0,2.896,2.349,5.244,5.246,5.244
	c0.336,0,0.665-0.032,0.982-0.092c0.462,0.277,1.002,0.438,1.581,0.438c1.69,0,3.062-1.371,3.062-3.061
	C17.533,13.941,17.364,13.388,17.071,12.919z M12.093,15.673c-1.494,0-2.995-0.676-2.987-1.843c0.002-0.352,0.266-0.674,0.615-0.674
	c0.879,0,0.872,1.307,2.272,1.307c0.981,0,1.317-0.537,1.317-0.908c0-1.351-4.247-0.523-4.247-3.062c0-1.372,1.128-2.32,2.901-2.216
	c1.692,0.1,2.682,0.844,2.78,1.538c0.047,0.454-0.257,0.808-0.78,0.808c-0.764,0-0.843-1.021-2.16-1.021
	c-0.595,0-1.097,0.247-1.097,0.783c0,1.12,4.22,0.47,4.22,2.935C14.928,14.741,13.791,15.673,12.093,15.673z"/>
</svg>
