<?xml version="1.0" encoding="utf-8"?>
<!-- Generator: Adobe Illustrator 16.0.0, SVG Export Plug-In . SVG Version: 6.00 Build 0)  -->
<!DOCTYPE svg PUBLIC "-//W3C//DTD SVG 1.1//EN" "http://www.w3.org/Graphics/SVG/1.1/DTD/svg11.dtd">
<svg version="1.1" id="Layer_1" xmlns="http://www.w3.org/2000/svg" xmlns:xlink="http://www.w3.org/1999/xlink" x="0px" y="0px"
	 width="40px" height="40px" viewBox="0 0 40 40" enable-background="new 0 0 40 40" xml:space="preserve">
<path id="smiley-excited-icon" fill="#010101" d="M20,0C8.954,0,0,8.954,0,20c0,11.044,8.954,20,20,20c11.044,0,20-8.956,20-20
	C40,8.954,31.044,0,20,0z M20,37.75c-9.811,0-17.75-7.939-17.75-17.75c0-9.809,7.939-17.75,17.75-17.75
	c9.805,0,17.75,7.939,17.75,17.75C37.75,29.805,29.811,37.75,20,37.75z"/>
<path id="link-icon" fill="#010101" d="M15.777,17.617c0.32-0.319,0.673-0.583,1.051-0.791c2.095-1.155,4.787-0.54,6.133,1.505
	l-1.629,1.63c-0.469-1.067-1.631-1.673-2.788-1.416c-0.435,0.098-0.848,0.314-1.185,0.654l-3.128,3.126
	c-0.951,0.951-0.951,2.493,0,3.444c0.949,0.949,2.494,0.949,3.443,0l0.963-0.967c0.876,0.35,1.819,0.49,2.747,0.418l-2.128,2.13
	c-1.824,1.824-4.783,1.824-6.607,0s-1.824-4.781,0-6.607L15.777,17.617z M20.743,12.651l-2.127,2.126
	c0.927-0.068,1.868,0.071,2.745,0.418l0.964-0.964c0.949-0.949,2.495-0.949,3.445,0c0.946,0.95,0.946,2.495,0,3.444l-3.13,3.129
	c-0.951,0.952-2.499,0.944-3.442,0c-0.222-0.222-0.412-0.497-0.53-0.765l-1.631,1.632c0.172,0.259,0.35,0.486,0.58,0.713
	c0.59,0.591,1.341,1.031,2.204,1.236c1.122,0.271,2.321,0.123,3.353-0.446c0.373-0.21,0.733-0.472,1.048-0.79l3.13-3.128
	c1.822-1.824,1.822-4.782,0-6.604C25.525,10.825,22.569,10.825,20.743,12.651z"/>
</svg>
