<?xml version="1.0" encoding="utf-8"?>
<!-- Generator: Adobe Illustrator 16.0.0, SVG Export Plug-In . SVG Version: 6.00 Build 0)  -->
<!DOCTYPE svg PUBLIC "-//W3C//DTD SVG 1.1//EN" "http://www.w3.org/Graphics/SVG/1.1/DTD/svg11.dtd">
<svg version="1.1" id="Layer_1" xmlns="http://www.w3.org/2000/svg" xmlns:xlink="http://www.w3.org/1999/xlink" x="0px" y="0px"
	 width="22px" height="22px" viewBox="0 0 22 22" enable-background="new 0 0 22 22" xml:space="preserve">
<path id="smiley-excited-icon" fill="#010101" d="M11,0C4.925,0,0,4.925,0,11c0,6.074,4.925,11,11,11c6.074,0,11-4.926,11-11
	C22,4.925,17.074,0,11,0z M11,20.557c-5.282,0-9.557-4.274-9.557-9.557c0-5.281,4.274-9.557,9.557-9.557
	c5.279,0,9.557,4.274,9.557,9.557C20.557,16.279,16.282,20.557,11,20.557z"/>
<path id="link-icon" fill="#010101" d="M8.336,9.497c0.202-0.201,0.424-0.368,0.663-0.499c1.322-0.729,3.02-0.341,3.869,0.949
	l-1.028,1.028c-0.295-0.673-1.028-1.055-1.758-0.893c-0.274,0.062-0.535,0.199-0.748,0.413l-1.973,1.973
	c-0.6,0.599-0.6,1.572,0,2.172c0.599,0.6,1.573,0.6,2.172,0l0.608-0.609c0.553,0.221,1.147,0.309,1.732,0.264l-1.343,1.343
	c-1.15,1.151-3.017,1.151-4.167,0c-1.151-1.15-1.151-3.016,0-4.167L8.336,9.497z M11.469,6.364l-1.342,1.342
	c0.584-0.043,1.178,0.044,1.731,0.263l0.609-0.608c0.599-0.599,1.573-0.599,2.173,0c0.598,0.599,0.598,1.574,0,2.173l-1.975,1.974
	c-0.601,0.601-1.577,0.596-2.171,0c-0.14-0.14-0.259-0.313-0.334-0.482l-1.029,1.029c0.108,0.163,0.22,0.307,0.365,0.45
	c0.372,0.372,0.846,0.65,1.391,0.78c0.707,0.171,1.464,0.077,2.114-0.282c0.236-0.132,0.462-0.298,0.662-0.498l1.974-1.973
	c1.15-1.151,1.15-3.017,0-4.167C14.486,5.212,12.621,5.212,11.469,6.364z"/>
</svg>
