<svg version="1.1" xmlns="http://www.w3.org/2000/svg" xmlns:xlink="http://www.w3.org/1999/xlink" x="0px" y="0px"
	 width="16px" height="16px" viewBox="0 0 16 16" enable-background="new 0 0 16 16" xml:space="preserve">
<path fill="#BBBBBB" d="M5.138,6.376c0.219-0.22,0.461-0.4,0.72-0.542c1.439-0.794,3.279-0.55,4.204,0.854L9,7.844
	c-0.48-1.097-1.033-1.037-1.962-0.83C6.739,7.08,6.562,7.178,6.174,7.364l-2.252,2.2c-0.497,0.696-0.59,1.831,0.062,2.483
	c0.652,0.651,1.805,0.575,2.456-0.076l0.662-0.661c0.066,0.026,1.247,0.941,1.228,0.942l-0.805,0.805
	c-1.252,1.252-3.281,1.252-4.533,0c-1.253-1.253-1.253-3.283,0-4.535L5.138,6.376z M8.546,2.968L7.732,3.826
	C8.354,4.179,8.411,4.373,8.97,4.714l0.592-0.683c1.5-1.453,2.771,0.224,2.547,0c0.65,0.652,0.537,1.734-0.03,2.483L9.933,8.662
	C9.196,9.216,8.133,9.211,7.485,8.563C7.334,8.411,7.32,8.453,7.239,8.269L6.088,9.278C6.205,9.457,6.244,9.492,6.4,9.648
	c0.405,0.405,0.92,0.705,1.514,0.85c0.768,0.183,1.591,0.081,2.299-0.309c0.259-0.142,0.501-0.323,0.72-0.541l2.147-2.147
	c1.252-1.252,1.252-3.281,0-4.533C11.828,1.715,9.799,1.715,8.546,2.968z"/>
</svg>
