<?xml version="1.0" encoding="utf-8"?>
<!-- Generator: Adobe Illustrator 16.0.0, SVG Export Plug-In . SVG Version: 6.00 Build 0)  -->
<!DOCTYPE svg PUBLIC "-//W3C//DTD SVG 1.1//EN" "http://www.w3.org/Graphics/SVG/1.1/DTD/svg11.dtd">
<svg version="1.1" id="Layer_1" xmlns="http://www.w3.org/2000/svg" xmlns:xlink="http://www.w3.org/1999/xlink" x="0px" y="0px"
	 width="13px" height="13px" viewBox="0 0 13 13" enable-background="new 0 0 13 13" xml:space="preserve">
<g>
	<path fill="#BBBBBB" d="M6.501,1.084c1.448,0,2.812,0.565,3.836,1.593c1.019,1.022,1.581,2.38,1.581,3.823
		c0,1.445-0.561,2.801-1.581,3.823c-1.022,1.026-2.388,1.595-3.836,1.595c-1.45,0-2.812-0.566-3.836-1.595
		C1.646,9.301,1.084,7.945,1.084,6.5c0-1.442,0.561-2.801,1.58-3.823C3.688,1.649,5.051,1.084,6.501,1.084 M6.501,0
		C2.91,0,0,2.911,0,6.5C0,10.091,2.91,13,6.501,13C10.09,13,13,10.091,13,6.5C13,2.911,10.09,0,6.501,0L6.501,0z"/>
</g>
<polygon fill="#BBBBBB" points="3.534,8.557 4.429,9.45 9.467,4.412 8.604,3.55 "/>
<polygon fill="#BBBBBB" points="9.467,8.557 8.57,9.45 3.534,4.412 4.396,3.55 "/>
</svg>
