<svg version="1.1" id="Layer_1" xmlns="http://www.w3.org/2000/svg" xmlns:xlink="http://www.w3.org/1999/xlink" x="0px" y="0px"
	 width="16px" height="16px" viewBox="0 0 16 16" enable-background="new 0 0 16 16" xml:space="preserve">
<path fill="#BBBBBB" d="M11.281,8c0,1.241-1.009,2.25-2.25,2.25c-1.24,0-2.25-1.01-2.25-2.25
	c0-1.24,1.01-2.25,2.25-2.25C10.272,5.75,11.281,6.759,11.281,8z M15.077,3.859L15,13.016H1V3.75l3.875-0.016
	c0.382,0,0.705-0.316,0.879-0.631l0.609-1.098h5.222l0.674,1.124c0.179,0.3,0.542,0.714,0.913,0.714L15.077,3.859z M3.562,5.48
	c0-0.375-0.312-0.678-0.696-0.678S2.169,5.105,2.169,5.48c0,0.374,0.312,0.676,0.697,0.676S3.562,5.854,3.562,5.48z M12.281,7.961
	c0-1.812-1.458-3.211-3.25-3.211c-1.792,0-3.25,1.399-3.25,3.211c0,1.813,1.458,3.289,3.25,3.289
	C10.823,11.25,12.281,9.774,12.281,7.961z M4.031,2.005H1.969v1.01h2.062V2.005z"/>
</svg>
