<svg version="1.1" id="Layer_1" xmlns="http://www.w3.org/2000/svg" xmlns:xlink="http://www.w3.org/1999/xlink" x="0px" y="0px"
	 width="16px" height="16px" viewBox="0 0 16 16" enable-background="new 0 0 16 16" xml:space="preserve">
<path fill="#BBBBBB" d="M5.003,7c0-0.551,0.446-0.997,0.997-0.997S6.997,6.449,6.997,7
	c0,0.55-0.446,0.997-0.997,0.997S5.003,7.55,5.003,7z M11.021,6.979L9,10L7.031,8.984L5,11h8L11.021,6.979z M14,3V1H0v11.042
	l2-0.021V14h14V3H14z M2,11H1l0.016-8.969L13,2v1H2 M15,13H3V4h12V13z"/>
</svg>
