<svg version="1.1" xmlns="http://www.w3.org/2000/svg" xmlns:xlink="http://www.w3.org/1999/xlink" x="0px" y="0px"
	 width="16px" height="16px" viewBox="0 0 16 16" enable-background="new 0 0 16 16" xml:space="preserve">
<path fill="#BBBBBB" d="M15.491,14.071L10.887,9.53c0.727-0.989,1.223-2.206,1.223-3.524
	C12.109,2.693,9.395,0,6.055,0S0,2.693,0,6.006c0,3.312,2.716,6.008,6.055,6.008c1.266,0,2.567-0.516,3.539-1.178l4.562,4.556
	L15.491,14.071z M1.632,5.996c0-2.429,1.975-4.403,4.403-4.403c2.429,0,4.402,1.975,4.402,4.403c0,2.428-1.974,4.402-4.402,4.402
	C3.607,10.396,1.632,8.423,1.632,5.996z"/>
</svg>
