<svg version="1.1" xmlns="http://www.w3.org/2000/svg" xmlns:xlink="http://www.w3.org/1999/xlink" x="0px" y="0px"
	 width="25px" height="25px" viewBox="-6 -6 25 25" enable-background="new -6 -6 25 25" xml:space="preserve">
<g>
	<path d="M6.5-4.766c3.012,0,5.846,1.174,7.978,3.313c2.119,2.126,3.288,4.95,3.288,7.951c0,3.006-1.166,5.824-3.288,7.951
		c-2.127,2.134-4.966,3.316-7.978,3.316c-3.016,0-5.848-1.178-7.978-3.316c-2.119-2.127-3.288-4.945-3.288-7.951
		c0-2.999,1.167-5.825,3.286-7.951C0.65-3.591,3.484-4.766,6.5-4.766 M6.502-6C-0.403-6-6-0.402-6,6.5C-6,13.405-0.403,19,6.502,19
		C13.403,19,19,13.405,19,6.5C19-0.402,13.403-6,6.502-6L6.502-6z"/>
</g>
<polygon points="4.75,0.719 10.443,6.535 4.751,12.249 3.906,11.312 8.812,6.484 3.906,1.656 "/>
</svg>
